<svg xmlns="http://www.w3.org/2000/svg" xmlns:xlink="http://www.w3.org/1999/xlink" viewBox="0 0 60 75" version="1.1" x="0px" y="0px"><title>45 -Sylo- (Solid)</title><desc>Created with Sketch.</desc><g stroke="none" stroke-width="1" fill="none" fill-rule="evenodd"><g transform="translate(-600.000000, -882.000000)" fill="#000000"><g transform="translate(600.000000, 882.000000)"><path d="M58.0001,58.0002 L2.0001,58.0002 L2.0001,56.0002 L8.0001,56.0002 L14.0001,56.0002 L21.0001,56.0002 L29.0001,56.0002 L38.0001,56.0002 L46.0001,56.0002 L55.0001,56.0002 L58.0001,56.0002 L58.0001,58.0002 Z M37.0001,47.0002 C37.0001,44.2432 39.2431,42.0002 42.0001,42.0002 C44.7571,42.0002 47.0001,44.2432 47.0001,47.0002 L47.0001,54.0002 L45.0001,54.0002 L45.0001,47.0002 C45.0001,45.3462 43.6541,44.0002 42.0001,44.0002 C40.3461,44.0002 39.0001,45.3462 39.0001,47.0002 L39.0001,49.0002 L40.0001,49.0002 C40.5521,49.0002 41.0001,49.4472 41.0001,50.0002 C41.0001,50.5532 40.5521,51.0002 40.0001,51.0002 L39.0001,51.0002 L39.0001,54.0002 L37.0001,54.0002 L37.0001,47.0002 Z M42.0001,20.0002 C50.4861,20.0002 57.4511,26.6422 57.9691,35.0002 L55.9651,35.0002 C55.9591,34.9242 55.9451,34.8512 55.9381,34.7762 C55.9201,34.5642 55.8911,34.3562 55.8631,34.1472 C55.8301,33.9002 55.7961,33.6542 55.7501,33.4102 C55.7111,33.2032 55.6641,33.0002 55.6161,32.7962 C55.5601,32.5582 55.5011,32.3222 55.4341,32.0902 C55.3751,31.8892 55.3101,31.6922 55.2431,31.4962 C55.1651,31.2682 55.0841,31.0432 54.9951,30.8212 C54.9181,30.6282 54.8361,30.4382 54.7501,30.2492 C54.6521,30.0332 54.5501,29.8202 54.4421,29.6102 C54.3471,29.4262 54.2481,29.2452 54.1461,29.0652 C54.0291,28.8622 53.9071,28.6622 53.7801,28.4652 C53.6681,28.2902 53.5551,28.1192 53.4351,27.9502 C53.3011,27.7592 53.1601,27.5742 53.0161,27.3902 C52.8891,27.2272 52.7601,27.0662 52.6261,26.9092 C52.4751,26.7332 52.3171,26.5622 52.1571,26.3932 C52.0151,26.2442 51.8741,26.0942 51.7251,25.9512 C51.5571,25.7892 51.3831,25.6342 51.2071,25.4802 C51.0531,25.3452 50.9001,25.2092 50.7391,25.0802 C50.5561,24.9332 50.3651,24.7952 50.1741,24.6572 C50.0081,24.5382 49.8451,24.4172 49.6751,24.3042 C49.4751,24.1732 49.2691,24.0532 49.0621,23.9322 C48.8881,23.8302 48.7161,23.7242 48.5371,23.6292 C48.3221,23.5152 48.1001,23.4142 47.8781,23.3112 C47.6971,23.2272 47.5201,23.1382 47.3351,23.0622 C47.1011,22.9652 46.8611,22.8842 46.6221,22.8002 C46.4391,22.7362 46.2601,22.6652 46.0731,22.6092 C45.8181,22.5312 45.5551,22.4712 45.2941,22.4082 C45.1151,22.3642 44.9401,22.3122 44.7591,22.2762 C44.4651,22.2172 44.1641,22.1792 43.8641,22.1392 C43.7081,22.1182 43.5561,22.0872 43.3991,22.0712 C42.9391,22.0252 42.4721,22.0002 42.0001,22.0002 C41.5281,22.0002 41.0611,22.0252 40.6011,22.0712 C40.4451,22.0862 40.2941,22.1182 40.1391,22.1382 C39.8381,22.1792 39.5361,22.2172 39.2411,22.2762 C39.0611,22.3122 38.8871,22.3642 38.7091,22.4072 C38.4461,22.4702 38.1831,22.5302 37.9261,22.6092 C37.7411,22.6652 37.5631,22.7352 37.3811,22.7992 C37.1411,22.8842 36.8991,22.9652 36.6651,23.0622 C36.4811,23.1382 36.3041,23.2272 36.1241,23.3102 C35.9011,23.4142 35.6781,23.5152 35.4621,23.6302 C35.2841,23.7242 35.1131,23.8292 34.9391,23.9312 C34.7321,24.0532 34.5251,24.1732 34.3251,24.3052 C34.1551,24.4172 33.9921,24.5372 33.8281,24.6562 C33.6361,24.7952 33.4451,24.9332 33.2601,25.0812 C33.1001,25.2092 32.9471,25.3452 32.7931,25.4802 C32.6171,25.6342 32.4431,25.7882 32.2751,25.9512 C32.1261,26.0942 31.9851,26.2442 31.8431,26.3932 C31.6831,26.5622 31.5261,26.7322 31.3741,26.9092 C31.2391,27.0662 31.1101,27.2282 30.9831,27.3922 C30.8401,27.5742 30.7001,27.7592 30.5661,27.9492 C30.4461,28.1182 30.3311,28.2912 30.2191,28.4662 C30.0931,28.6622 29.9721,28.8612 29.8561,29.0632 C29.7521,29.2442 29.6521,29.4272 29.5571,29.6132 C29.4491,29.8212 29.3481,30.0322 29.2511,30.2462 C29.1651,30.4372 29.0821,30.6282 29.0041,30.8242 C28.9161,31.0442 28.8351,31.2672 28.7591,31.4922 C28.6911,31.6912 28.6251,31.8892 28.5661,32.0922 C28.4991,32.3232 28.4411,32.5572 28.3851,32.7932 C28.3371,32.9982 28.2891,33.2032 28.2501,33.4122 C28.2041,33.6542 28.1701,33.8992 28.1371,34.1462 C28.1091,34.3552 28.0801,34.5642 28.0621,34.7762 C28.0551,34.8512 28.0401,34.9242 28.0351,35.0002 L26.0311,35.0002 C26.5491,26.6422 33.5141,20.0002 42.0001,20.0002 L42.0001,20.0002 Z M36.0001,30.0002 C36.0001,29.4472 36.4481,29.0002 37.0001,29.0002 L47.0001,29.0002 C47.5531,29.0002 48.0001,29.4472 48.0001,30.0002 L48.0001,38.0002 C48.0001,38.5532 47.5531,39.0002 47.0001,39.0002 L37.0001,39.0002 C36.4481,39.0002 36.0001,38.5532 36.0001,38.0002 L36.0001,30.0002 Z M59.0001,54.0002 L56.0001,54.0002 L56.0001,37.0002 L59.0001,37.0002 C59.5531,37.0002 60.0001,36.5532 60.0001,36.0002 C60.0001,26.0752 51.9251,18.0002 42.0001,18.0002 C32.0751,18.0002 24.0001,26.0752 24.0001,36.0002 C24.0001,36.5532 24.4481,37.0002 25.0001,37.0002 L28.0001,37.0002 L28.0001,54.0002 L22.0001,54.0002 L22.0001,18.0002 L15.0001,18.0002 L15.0001,54.0002 L13.0001,54.0002 L13.0001,51.0002 L9.0001,51.0002 L9.0001,54.0002 L7.0001,54.0002 L7.0001,18.0002 L9.99999997e-05,18.0002 L9.99999997e-05,55.0002 L9.99999997e-05,59.0002 C9.99999997e-05,59.5532 0.4481,60.0002 1.0001,60.0002 L59.0001,60.0002 C59.5531,60.0002 60.0001,59.5532 60.0001,59.0002 L60.0001,55.0002 C60.0001,54.4472 59.5531,54.0002 59.0001,54.0002 L59.0001,54.0002 Z"/><polygon points="9 33 13 33 13 31 9 31"/><polygon points="9 25 13 25 13 23 9 23"/><polygon points="9 29 13 29 13 27 9 27"/><polygon points="9 41 13 41 13 39 9 39"/><polygon points="9 45 13 45 13 43 9 43"/><polygon points="9 37 13 37 13 35 9 35"/><polygon points="9 49 13 49 13 47 9 47"/><path d="M22,11.0002 C22,4.9352 17.065,0.0002 11,0.0002 C4.935,0.0002 0,4.9352 0,11.0002 L0,12.0002 L22,12.0002 L22,11.0002 Z"/><polygon points="9 21 13 21 13 18 9 18"/><polygon points="14 16.0002 22 16.0002 22 14.0002 0 14.0002 0 16.0002 8 16.0002"/><polygon points="38 37 46 37 46 31 38 31"/></g></g></g><text x="0" y="75" fill="#000000" font-size="5px" font-weight="bold" font-family="'Helvetica Neue', Helvetica, Arial-Unicode, Arial, Sans-serif">Created by Ben Davis</text><text x="0" y="80" fill="#000000" font-size="5px" font-weight="bold" font-family="'Helvetica Neue', Helvetica, Arial-Unicode, Arial, Sans-serif">from the Noun Project</text></svg>