<svg xmlns="http://www.w3.org/2000/svg" xmlns:xlink="http://www.w3.org/1999/xlink" version="1.1" baseProfile="tiny" x="0px" y="0px" viewBox="-7.5 16.5 24 30" xml:space="preserve"><g><polygon points="1.5,17.5 9.5,17.5 9.5,16.5 -0.5,16.5 -4.5,30.5 -0.5,30.5  "/><circle cx="7" cy="21" r="0.5"/><circle cx="7" cy="19" r="0.5"/><circle cx="7" cy="23" r="0.5"/><rect x="3.5" y="24.5" width="7" height="3"/><polygon points="12.5,27.5 10.1,31.5 16.5,31.5 16.5,27.5  "/><path d="M8.9,33.5H1.5v-2h-9l4,7v0c0.8,0,1.5-0.4,2-1c0.5,0.6,1.2,1,2,1s1.5-0.4,2-1c0.5,0.6,1.2,1,2,1s1.5-0.4,2-1   c0.5,0.6,1.2,1,2,1s1.5-0.4,2-1c0.5,0.6,1.2,1,2,1s1.5-0.4,2-1c0.5,0.6,1.2,1,2,1v-1v-5h-7L8.9,33.5z"/><path d="M14.5,38.5c-0.5,0.6-1.2,1-2,1s-1.5-0.4-2-1c-0.5,0.6-1.2,1-2,1s-1.5-0.4-2-1c-0.5,0.6-1.2,1-2,1s-1.5-0.4-2-1   c-0.5,0.6-1.2,1-2,1s-1.5-0.4-2-1c-0.5,0.6-1.2,1-2,1s-1.5-0.4-2-1c-0.5,0.6-1.2,1-2,1v1c0.8,0,1.5-0.4,2-1c0.5,0.6,1.2,1,2,1   s1.5-0.4,2-1c0.5,0.6,1.2,1,2,1s1.5-0.4,2-1c0.5,0.6,1.2,1,2,1s1.5-0.4,2-1c0.5,0.6,1.2,1,2,1s1.5-0.4,2-1c0.5,0.6,1.2,1,2,1   s1.5-0.4,2-1c0.5,0.6,1.2,1,2,1v-1C15.7,39.5,15,39.1,14.5,38.5z"/></g><text x="-7.5" y="55.5" fill="#000000" font-size="5px" font-weight="bold" font-family="'Helvetica Neue', Helvetica, Arial-Unicode, Arial, Sans-serif">Created by Rflor</text><text x="-7.5" y="60.5" fill="#000000" font-size="5px" font-weight="bold" font-family="'Helvetica Neue', Helvetica, Arial-Unicode, Arial, Sans-serif">from the Noun Project</text></svg>