<svg xmlns="http://www.w3.org/2000/svg" xmlns:xlink="http://www.w3.org/1999/xlink" version="1.1" x="0px" y="0px" viewBox="0 0 100 125" enable-background="new 0 0 100 100" xml:space="preserve"><g><circle cx="18.033" cy="21.367" r="6.226"/><circle cx="50.528" cy="11.335" r="6.226"/><circle cx="81.702" cy="20.822" r="6.226"/><path d="M31.003,42.532l-1.036-9.794c-0.215-1.724-1.68-3.018-3.417-3.02L9.58,29.7c-1.784-0.002-3.275,1.357-3.437,3.134   C6.142,31.659,5.502,42.302,5.2,52.06c-0.004,0.137,0.001,0.271,0.022,0.406c0.525,3.464,1.875,7.916,8.933,10.183   c4.221,1.356,5.119-1.99,3.499-3.984c-1.589-1.956-3.01-3.506-3.967-4.905c-0.894-1.307-0.722-5.029-0.691-5.482   c1.238-0.723,3.372-1.603,4.323-1.985C21.337,44.677,25.979,43.433,31.003,42.532z"/><path d="M69.028,42.532l1.036-9.794c0.215-1.724,1.68-3.018,3.417-3.02L90.45,29.7c1.784-0.002,3.275,1.357,3.437,3.134   c0.002-1.175,0.641,9.468,0.943,19.227c0.004,0.137-0.001,0.271-0.022,0.406c-0.525,3.464-1.875,7.916-8.933,10.183   c-4.221,1.356-5.119-1.99-3.499-3.984c1.589-1.956,3.01-3.506,3.967-4.905c0.894-1.307,0.722-5.029,0.691-5.482   c-1.238-0.723-3.372-1.603-4.323-1.985C78.693,44.677,74.052,43.433,69.028,42.532z"/><path d="M62.167,23.276c-0.215-1.724-1.68-3.018-3.417-3.02L41.78,20.238c-1.784-0.002-3.275,1.357-3.437,3.134l-1.415,18.303   c4.184-0.49,8.562-0.746,13.038-0.746c0.022,0,0.045,0.001,0.067,0.001c0.024,0,0.048-0.001,0.072-0.001   c2.896,0,5.75,0.11,8.539,0.318l1.595,0.132c1.313,0.117,2.609,0.256,3.886,0.418L62.167,23.276z M50.643,40.232l-2.39-3.456   l1.492-12.139c-0.17-0.092-0.288-0.271-0.288-0.478v-1.323c0-0.302,0.245-0.546,0.546-0.546h1.323c0.302,0,0.546,0.245,0.546,0.546   v1.323c0,0.227-0.139,0.422-0.336,0.504l1.586,12.113L50.643,40.232z"/><path d="M14.997,51.494c1.139-0.588,2.384-1.153,3.734-1.689c8.298-3.293,19.375-5.107,31.19-5.107s22.892,1.814,31.19,5.107   c1.424,0.565,2.734,1.163,3.923,1.786v-2.28c-8.282-4.056-20.933-6.65-35.113-6.65c-14.072,0-26.64,2.554-34.924,6.557V51.494z"/><path d="M94.631,58.113c-0.599,1.036-1.393,2.04-2.453,2.962c-0.38,3.301-4.578,6.831-11.399,9.538   c-8.205,3.256-19.175,5.049-30.89,5.049c-11.714,0-22.684-1.793-30.89-5.049c-6.946-2.756-11.174-6.367-11.419-9.719   c-1.025-0.932-1.787-1.944-2.362-2.984c-0.275,0.727,1.452,26.766,1.452,26.766h5.361l-0.144-14.402   c4.702,2.899,11.448,5.224,19.436,6.655l1.231,17.542h5.292l1.356-16.466c3.427,0.33,7.003,0.509,10.686,0.509   c3.552,0,7.003-0.168,10.319-0.476l1.144,16.433h5.292l1.442-17.476c8.152-1.426,15.035-3.779,19.81-6.725L87.77,84.43h5.361   C93.131,84.43,94.861,58.774,94.631,58.113z"/><g><polygon points="57.649,51.952 44.293,51.952 44.097,53.421 57.845,53.421   "/><polygon points="58.923,61.497 43.019,61.497 42.823,62.967 59.119,62.967   "/><polygon points="58.286,56.724 43.656,56.724 43.46,58.193 58.482,58.193   "/><g><path d="M63.125,68.14H38.774l2.794-20.461H60.33L63.125,68.14z M40.995,66.202h19.908l-2.264-16.586H43.26L40.995,66.202z"/></g><polygon points="36.347,61.745 38.052,48.997 35.086,48.997 33.381,61.745 34.578,64.494   "/></g></g><text x="0" y="115" fill="#000000" font-size="5px" font-weight="bold" font-family="'Helvetica Neue', Helvetica, Arial-Unicode, Arial, Sans-serif">Created by Gerald Wildmoser</text><text x="0" y="120" fill="#000000" font-size="5px" font-weight="bold" font-family="'Helvetica Neue', Helvetica, Arial-Unicode, Arial, Sans-serif">from the Noun Project</text></svg>