<svg xmlns:dc="http://purl.org/dc/elements/1.1/" xmlns:cc="http://creativecommons.org/ns#" xmlns:rdf="http://www.w3.org/1999/02/22-rdf-syntax-ns#" xmlns:svg="http://www.w3.org/2000/svg" xmlns="http://www.w3.org/2000/svg" xmlns:sodipodi="http://sodipodi.sourceforge.net/DTD/sodipodi-0.dtd" xmlns:inkscape="http://www.inkscape.org/namespaces/inkscape" version="1.1" x="0px" y="0px" viewBox="0 0 100 125"><g transform="translate(0,-952.36218)"><path style="text-indent:0;text-transform:none;direction:ltr;block-progression:tb;baseline-shift:baseline;color:#000000;enable-background:accumulate;" d="m 37.9063,983.7057 0,60.6564 5.5624,0 0,-20.875 c 2e-4,-0.7855 0.7147,-1.5 1.5,-1.5 l 10.0938,0 c 0.7853,0 1.5,0.7145 1.5,1.5 l 0,20.875 5.5625,0 c 0,-20.2476 -0.021,-40.4084 0,-60.6564 l -24.2187,0 z m 10.625,6.78125 2.9374,0 0,4.46875 -2.9374,0 0,-4.46875 z m 0,12.78125 2.9374,0 0,4.4688 -2.9374,0 0,-4.4688 z" fill="#000000" fill-opacity="1" fill-rule="evenodd" stroke="none" marker="none" visibility="visible" display="inline" overflow="visible"/><path style="text-indent:0;text-transform:none;direction:ltr;block-progression:tb;baseline-shift:baseline;color:#000000;enable-background:accumulate;" d="m 10.6875,1011.3621 0,33 24.2188,0 0,-33 -24.2188,0 z m 10.6562,7.875 2.9376,0 0,4.4687 -2.9376,0 0,-4.4687 z m 0,12.7812 2.9376,0 0,4.4688 -2.9376,0 0,-4.4688 z" fill="#000000" fill-opacity="1" fill-rule="evenodd" stroke="none" marker="none" visibility="visible" display="inline" overflow="visible"/><path style="text-indent:0;text-transform:none;direction:ltr;block-progression:tb;baseline-shift:baseline;color:#000000;enable-background:accumulate;" d="m 65.125,1011.3621 0,33 24.1875,0 0,-33 -24.1875,0 z m 10.625,7.875 2.9375,0 0,4.4687 -2.9375,0 0,-4.4687 z m 0,12.7812 2.9375,0 0,4.4688 -2.9375,0 0,-4.4688 z" fill="#000000" fill-opacity="1" fill-rule="evenodd" stroke="none" marker="none" visibility="visible" display="inline" overflow="visible"/><path style="text-indent:0;text-transform:none;direction:ltr;block-progression:tb;baseline-shift:baseline;color:#000000;enable-background:accumulate;" d="m 46.4694,1024.9895 7.093,0 0,19.3729 -7.093,0 z" fill="#000000" fill-opacity="1" fill-rule="evenodd" stroke="none" marker="none" visibility="visible" display="inline" overflow="visible"/><path style="text-indent:0;text-transform:none;direction:ltr;block-progression:tb;baseline-shift:baseline;color:#000000;enable-background:accumulate;" d="m 20.9862,960.36328 a 1.4999891,1.4999891 0 0 0 -1.3652,1.03802 l -1.6242,5.03821 -5.295,-0.008 a 1.4999891,1.4999891 0 0 0 -0.8815,2.71502 l 4.2836,3.09874 -1.6407,5.02977 a 1.4999891,1.4999891 0 0 0 2.309,1.67732 l 4.2762,-3.11592 4.2761,3.11592 a 1.4999891,1.4999891 0 0 0 2.3085,-1.6792 l -1.6483,-5.02758 4.2908,-3.09811 a 1.4999891,1.4999891 0 0 0 -0.8805,-2.71596 l -5.2951,0.008 -1.6242,-5.03821 a 1.4999891,1.4999891 0 0 0 -1.4895,-1.03802 z" fill="#000000" fill-opacity="1" fill-rule="evenodd" stroke="none" marker="none" visibility="visible" display="inline" overflow="visible"/><path style="text-indent:0;text-transform:none;direction:ltr;block-progression:tb;baseline-shift:baseline;color:#000000;enable-background:accumulate;" d="m 78.91,960.36328 a 1.4999891,1.4999891 0 0 0 -1.3652,1.03802 l -1.6242,5.03821 -5.2951,-0.008 a 1.4999891,1.4999891 0 0 0 -0.8805,2.71596 l 4.2908,3.09811 -1.6482,5.02758 a 1.4999891,1.4999891 0 0 0 2.3084,1.6792 l 4.2762,-3.11592 4.2761,3.11592 a 1.4999891,1.4999891 0 0 0 2.309,-1.67732 l -1.6407,-5.02977 4.2837,-3.09874 a 1.4999891,1.4999891 0 0 0 -0.8815,-2.71502 l -5.2951,0.008 -1.6242,-5.03821 A 1.4999891,1.4999891 0 0 0 78.91,960.36328 z" fill="#000000" fill-opacity="1" fill-rule="evenodd" stroke="none" marker="none" visibility="visible" display="inline" overflow="visible"/><path style="text-indent:0;text-transform:none;direction:ltr;block-progression:tb;baseline-shift:baseline;color:#000000;enable-background:accumulate;" d="m 49.5131,960.36328 a 1.4999891,1.4999891 0 0 0 -1.3645,1.03583 l -1.6333,5.0404 -5.2866,-0.008 a 1.4999891,1.4999891 0 0 0 -0.8815,2.71502 l 4.2836,3.09874 -1.6407,5.02977 a 1.4999891,1.4999891 0 0 0 2.3091,1.67732 l 4.2761,-3.11592 4.2761,3.11592 a 1.4999891,1.4999891 0 0 0 2.3085,-1.6792 l -1.6485,-5.02883 4.282,-3.0978 a 1.4999891,1.4999891 0 0 0 -0.8815,-2.71502 l -5.285,0.008 -1.6242,-5.03821 a 1.4999891,1.4999891 0 0 0 -1.4896,-1.03802 z" fill="#000000" fill-opacity="1" fill-rule="evenodd" stroke="none" marker="none" visibility="visible" display="inline" overflow="visible"/></g><text x="0" y="115" fill="#000000" font-size="5px" font-weight="bold" font-family="'Helvetica Neue', Helvetica, Arial-Unicode, Arial, Sans-serif">Created by alerma</text><text x="0" y="120" fill="#000000" font-size="5px" font-weight="bold" font-family="'Helvetica Neue', Helvetica, Arial-Unicode, Arial, Sans-serif">from the Noun Project</text></svg>