<svg xmlns="http://www.w3.org/2000/svg" xmlns:xlink="http://www.w3.org/1999/xlink" version="1.1" x="0px" y="0px" viewBox="0 0 100 125" style="enable-background:new 0 0 100 100;" xml:space="preserve"><g><path d="M84.953,68.629V100H71.109V66.901h-4.247c0,0,0,33.099-0.005,33.099h-33.72V66.901h-4.247V100H15.047V68.629   c0-13.479,10.925-24.405,24.403-24.405h0.877l-4.426,38.108L50,99.298l14.099-16.966l-4.425-38.104h0.973   C74.125,44.229,84.953,55.15,84.953,68.629z M49.998,41.281c11.399,0,20.641-9.241,20.641-20.641C70.639,9.24,61.396,0,49.998,0   C38.598,0,29.356,9.24,29.356,20.641C29.356,32.04,38.598,41.281,49.998,41.281z M57.426,44.241L50,50.764l-7.447-6.54   l0.021,13.062L50,50.764l7.447,6.539L57.426,44.241z M49.998,61.75c-1.524,0-2.76,1.234-2.76,2.759s1.236,2.76,2.76,2.76   s2.759-1.235,2.759-2.76S51.521,61.75,49.998,61.75z M49.998,75.838c-1.524,0-2.76,1.235-2.76,2.759c0,1.524,1.236,2.76,2.76,2.76   s2.759-1.235,2.759-2.76C52.757,77.073,51.521,75.838,49.998,75.838z"/></g><text x="0" y="115" fill="#000000" font-size="5px" font-weight="bold" font-family="'Helvetica Neue', Helvetica, Arial-Unicode, Arial, Sans-serif">Created by b farias</text><text x="0" y="120" fill="#000000" font-size="5px" font-weight="bold" font-family="'Helvetica Neue', Helvetica, Arial-Unicode, Arial, Sans-serif">from the Noun Project</text></svg>