<svg xmlns="http://www.w3.org/2000/svg" viewBox="0 0 16 20" x="0px" y="0px"><title>cctv</title><g><path d="M15.5,3H15V7h.5a.5.5,0,0,0,.5-.5v-3A.5.5,0,0,0,15.5,3Z"/><path d="M14.5,1H1.5a.5.5,0,0,0-.5.5v2a.5.5,0,0,0,.5.5h9.764a4.1,4.1,0,0,0,3.684-2.276A.5.5,0,0,0,14.5,1Z"/><path d="M1.5,5A1.483,1.483,0,0,1,1,4.908V7.5a.5.5,0,0,0,.5.5H6V9.5a.5.5,0,0,0,.5.5H7v.5A1.5,1.5,0,0,1,5.5,12H3V9.5A.5.5,0,0,0,2.5,9H.5a.5.5,0,0,0-.5.5v6a.5.5,0,0,0,.5.5h2a.5.5,0,0,0,.5-.5V13H5.5A2.5,2.5,0,0,0,8,10.5V10h.5A.5.5,0,0,0,9,9.5V8h4.5a.5.5,0,0,0,.5-.5V4.208A5.1,5.1,0,0,1,11.264,5Z"/></g><text x="0" y="31" fill="#000000" font-size="5px" font-weight="bold" font-family="'Helvetica Neue', Helvetica, Arial-Unicode, Arial, Sans-serif">Created by icon 54</text><text x="0" y="36" fill="#000000" font-size="5px" font-weight="bold" font-family="'Helvetica Neue', Helvetica, Arial-Unicode, Arial, Sans-serif">from the Noun Project</text></svg>