<svg xmlns="http://www.w3.org/2000/svg" xmlns:xlink="http://www.w3.org/1999/xlink" version="1.1" x="0px" y="0px" viewBox="0 0 785.354 1125" enable-background="new 0 0 785.354 900" xml:space="preserve"><path d="M284.158,495.67l115.292,379.168l-0.229,12.983H177.661c0.921-29.726,1.313-59.092,0.915-86.935l-38.75,86.935H11  c2.035-13.761,6.112-26.822,11.021-39.874l104.37-276.98c6.068-21.514,21.844-40.338,42.476-48.405  c18.203-8.067,91.02-32.269,111.65-38.992L284.158,495.67z M571.781,264.404c0-18.824-2.43-37.647-7.281-55.125  c-31.555,16.135-84.952,30.926-172.332,30.926c-88.592,0-141.991-16.136-173.544-32.273c-4.855,17.481-7.282,36.305-7.282,55.127  c0,110.256,80.098,198.997,179.613,198.997C491.684,463.402,571.781,374.659,571.781,264.404z M433.431,533.317v-17.477  c0-13.447-9.709-22.859-20.631-22.859h-41.264c-12.135,0-20.63,10.757-20.63,22.859v17.477c0,13.446,9.708,22.858,20.63,22.858  l-8.495,125.045l29.126,95.464l29.126-95.464L412.8,556.176C423.722,556.176,433.431,546.764,433.431,533.317z M392.168,147.428  c-72.816,0-137.136,8.066-190.535,21.512C214.982,182.386,262.313,216,392.168,216c129.854,0,177.184-33.614,190.535-47.061  C529.303,156.84,464.984,147.428,392.168,147.428z M392.168,124.569c-76.456,0-146.845,8.066-206.312,25.548v-1.346v-25.546  c0-12.102,6.068-25.546,16.991-32.27l112.865-76.641c2.427-1.346,6.067-2.69,8.495-2.69h135.923c2.428,0,6.068,1.347,8.496,2.69  l112.864,76.641c10.922,6.724,16.991,18.824,16.991,32.27v25.546v1.346C539.012,133.981,468.625,124.569,392.168,124.569z   M395.694,111.328l16.991-13.696c10.923-9.133,16.99-21.687,16.99-34.244h-1.215V37.137c0-3.424-3.641-6.849-7.281-6.849h-58.252  c-3.641,0-7.281,3.424-7.281,6.849v26.252c0,13.696,6.068,26.253,16.991,34.244l15.774,13.696  C390.838,113.613,393.268,113.613,395.694,111.328z M773.354,887.821H643.467L609.404,810.3  c-0.541,24.935-0.512,51.061-0.087,77.521H419.854l0.228-12.98v-2.691l-16.991-56.471l101.943-332.109  c18.202,5.378,86.165,29.581,110.436,38.992c27.913,10.756,35.195,25.547,42.476,48.405l104.371,276.98  C767.238,859.945,771.326,873.718,773.354,887.821z"/><text x="0" y="915" fill="#000000" font-size="5px" font-weight="bold" font-family="'Helvetica Neue', Helvetica, Arial-Unicode, Arial, Sans-serif">Created by alrigel</text><text x="0" y="920" fill="#000000" font-size="5px" font-weight="bold" font-family="'Helvetica Neue', Helvetica, Arial-Unicode, Arial, Sans-serif">from the Noun Project</text></svg>