<svg xmlns="http://www.w3.org/2000/svg" xmlns:xlink="http://www.w3.org/1999/xlink" xml:space="preserve" version="1.1" style="shape-rendering:geometricPrecision;text-rendering:geometricPrecision;image-rendering:optimizeQuality;" viewBox="0 0 847 1058.75" x="0px" y="0px" fill-rule="evenodd" clip-rule="evenodd"><defs><style type="text/css">
   
    .fil1 {fill:black}
    .fil0 {fill:#010002}
   
  </style></defs><g><path class="fil0" d="M736 536l-16 0c0,-55 -80,-63 -91,-9 -3,-4 -5,-10 -5,-15 0,-74 0,-85 0,-159 0,-13 10,-24 24,-24l69 0 77 73 0 41 16 0c13,0 24,10 24,24l0 45c0,6 -3,12 -7,16 -9,-55 -91,-48 -91,8zm-27 -186l-47 0c-10,0 -18,8 -18,18l0 42c0,10 8,18 18,18l93 0c10,0 19,-8 19,-18l-65 -60z"/><path class="fil0" d="M782 503c18,0 34,13 38,30 0,3 1,6 1,9 0,21 -18,38 -39,38 -22,0 -39,-17 -39,-38 0,-2 0,-4 1,-6 2,-19 18,-33 38,-33zm-21 39c0,11 9,20 21,20 11,0 21,-9 21,-20 0,-2 -1,-4 -1,-6 -3,-9 -11,-15 -20,-15 -9,0 -17,6 -20,15 0,2 -1,4 -1,6z"/><path class="fil0" d="M674 503c19,0 35,14 38,33 0,2 1,4 1,6 0,21 -18,38 -39,38 -22,0 -39,-17 -39,-38 0,-3 0,-7 1,-9 4,-17 19,-30 38,-30zm-21 39c0,11 9,20 21,20 11,0 20,-9 20,-20 0,-2 0,-4 -1,-6 -2,-9 -10,-15 -19,-15 -10,0 -17,6 -20,15 -1,2 -1,4 -1,6z"/><path class="fil0" d="M586 504l0 -219c0,-15 24,-15 24,0l0 237c0,13 -6,17 -26,16l-225 0c-16,0 -16,-24 0,-24l220 0c9,-1 7,-3 7,-10z"/><path class="fil0" d="M295 503c22,0 39,17 39,39 0,21 -18,38 -39,38 -21,0 -39,-17 -39,-38 0,-22 18,-39 39,-39zm-21 39c0,11 10,20 21,20 11,0 21,-9 21,-20 0,-12 -10,-21 -21,-21 -11,0 -21,9 -21,21z"/><path class="fil0" d="M202 503c21,0 38,17 38,39 0,21 -17,38 -38,38 -22,0 -39,-17 -39,-38 0,-22 17,-39 39,-39zm-21 39c0,11 9,20 21,20 11,0 20,-9 20,-20 0,-12 -9,-21 -20,-21 -12,0 -21,9 -21,21z"/><path class="fil1" d="M42 539c-15,0 -15,-25 0,-25 32,0 64,0 95,0 16,0 16,25 0,25 -31,0 -63,0 -95,0z"/><path class="fil1" d="M565 266l-552 0 0 224 546 0c3,0 6,-2 6,-6l0 -218z"/></g><text x="0" y="862" fill="#000000" font-size="5px" font-weight="bold" font-family="'Helvetica Neue', Helvetica, Arial-Unicode, Arial, Sans-serif">Created by hendra sudibyo</text><text x="0" y="867" fill="#000000" font-size="5px" font-weight="bold" font-family="'Helvetica Neue', Helvetica, Arial-Unicode, Arial, Sans-serif">from the Noun Project</text></svg>