<svg xmlns="http://www.w3.org/2000/svg" xmlns:xlink="http://www.w3.org/1999/xlink" version="1.1" x="0px" y="0px" viewBox="0 0 132 165" style="enable-background:new 0 0 132 132;" xml:space="preserve"><g><polygon points="10.5,85 55.7,130 65,130 10.5,75.8  "/><polygon points="10.5,97.8 42.9,130 52.2,130 10.5,88.5  "/><path d="M116.7,24l-14.3-7.3c-0.1,0.6-0.4,1.2-0.8,1.7l-6.6,6.6v39.6c0,12.1-7,23-17.9,27.6l-0.1,0c-3.5,1.5-7.2,2.2-10.9,2.2   c-3.7,0-7.2-0.7-10.6-2.1L55,92.2c-10.9-4.6-17.9-15.5-17.9-27.6V24.9l-6.6-6.6c-0.5-0.5-0.8-1.1-0.8-1.7L15.3,24   c-3,1.5-4.8,4.5-4.8,7.9v40.5l58,57.7h44c5,0,9-4,9-9V31.9C121.5,28.5,119.7,25.5,116.7,24z"/><path d="M10.5,121c0,5,4,9,9,9h7.1l-16.1-16V121z"/><polygon points="10.5,110.5 30.1,130 39.4,130 10.5,101.2  "/><path d="M100.2,15.8L92,2.5c0,0,0,0-0.1-0.1c0-0.1-0.1-0.1-0.2-0.2c0,0-0.1-0.1-0.1-0.1c-0.1,0-0.2-0.1-0.2-0.1c0,0-0.1,0-0.1,0   c0,0,0,0-0.1,0c0,0,0,0-0.1,0H40.8c0,0,0,0-0.1,0c0,0,0,0,0,0c0,0-0.1,0-0.1,0c-0.1,0-0.2,0-0.2,0.1c0,0-0.1,0-0.1,0.1   c-0.1,0.1-0.1,0.1-0.2,0.2c0,0,0,0-0.1,0.1l-8.2,13.3c-0.2,0.4-0.2,0.9,0.1,1.2l7.1,7.1v40.4c0,11.7,6.9,21.7,16.7,25.8   c0,0,0,0,0,0c3.1,1.3,6.6,2.1,10.2,2.1c3.6,0,7-0.7,10.1-2c0,0,0.1,0,0.1,0c9.8-4.2,16.7-14.2,16.7-25.8V24.1l7.1-7.1   C100.4,16.7,100.5,16.2,100.2,15.8z M88.7,4L66,25.4L43.3,4H88.7z M55.5,88.1C47,83.9,41,75,41,64.5V26.1l16.9,16.8   c0.8,1,1.8,1.8,2.9,2.4L55.5,88.1z M59.8,42.1L66,29l6.2,13c-1.6,1.7-3.8,2.6-6.2,2.6C63.7,44.7,61.5,43.8,59.8,42.1z M91,64.5   C91,75,85,83.9,76.5,88.1l-5.3-42.8c1.1-0.6,2.1-1.4,2.9-2.4L91,26.1V64.5z"/></g><text x="0" y="147" fill="#000000" font-size="5px" font-weight="bold" font-family="'Helvetica Neue', Helvetica, Arial-Unicode, Arial, Sans-serif">Created by Hat-Tech</text><text x="0" y="152" fill="#000000" font-size="5px" font-weight="bold" font-family="'Helvetica Neue', Helvetica, Arial-Unicode, Arial, Sans-serif">from the Noun Project</text></svg>