<svg xmlns="http://www.w3.org/2000/svg" xmlns:xlink="http://www.w3.org/1999/xlink" version="1.1" x="0px" y="0px" viewBox="0 0 100 43.75" enable-background="new 0 0 100 35" xml:space="preserve"><path fill="#000000" d="M88.967,22.396L87,25.123V22.5H76v4h-1v-4H64v4h-1v-4H52v4h-1v-4H40v4h-1v-4H26v2.87l-0.742-2.87H23v-12h-2  v-2h2V7.6c0,0,3-0.623,3-1.676V4.701C26,3.648,24.831,2.5,23.651,2.5L15,2.516V1.781l4-0.406V0.5h-7v1l2,0.312V2.5H5.846  C4.667,2.5,4,3.648,4,4.701v1.223C4,6.977,7,7.6,7,7.6v14.9H6.236C5.028,22.5,0,19.61,0,22.945v11.077  c0,1.2,5.028,2.478,6.236,2.478h80.066c8.472,0,13.091-11.779,13.091-11.779C101.13,19.951,93.982,22.396,88.967,22.396z M17,10.5  h-7v-2h7V10.5z M20.247,10.5h-2v-2h2V10.5z M84.283,28.5H30.791c-0.161,0-0.287-0.34-0.287-0.5c0-0.162,0.126-0.5,0.287-0.5h53.492  c0.161,0,0.287,0.338,0.287,0.5C84.57,28.16,84.444,28.5,84.283,28.5z"/><rect x="26" y="16.5" fill="#000000" width="13" height="5"/><rect x="26" y="9.5" fill="#000000" width="13" height="6"/><rect x="40" y="16.5" fill="#000000" width="11" height="5"/><rect x="40" y="9.5" fill="#000000" width="11" height="6"/><rect x="52" y="16.5" fill="#000000" width="11" height="5"/><rect x="52" y="9.5" fill="#000000" width="11" height="6"/><rect x="64" y="16.5" fill="#000000" width="11" height="5"/><polygon fill="#000000" points="75.601,9.5 64,9.5 64,15.5 75.302,15.512 "/><rect x="76" y="16.5" fill="#000000" width="11" height="5"/><text x="0" y="50" fill="#000000" font-size="5px" font-weight="bold" font-family="'Helvetica Neue', Helvetica, Arial-Unicode, Arial, Sans-serif">Created by Marc</text><text x="0" y="55" fill="#000000" font-size="5px" font-weight="bold" font-family="'Helvetica Neue', Helvetica, Arial-Unicode, Arial, Sans-serif">from the Noun Project</text></svg>