<svg xmlns="http://www.w3.org/2000/svg" xmlns:xlink="http://www.w3.org/1999/xlink" version="1.1" x="0px" y="0px" viewBox="0 0 100 125" enable-background="new 0 0 100 100" xml:space="preserve"><g><path fill-rule="evenodd" clip-rule="evenodd" d="M97,71.885h-5.412c0.245,0.652,0.386,1.355,0.386,2.094   c0,0.668-0.114,1.307-0.316,1.906H97c1.1,0,2-0.9,2-2C99,72.783,98.1,71.885,97,71.885z"/><polygon fill-rule="evenodd" clip-rule="evenodd" points="56.987,41.885 62,41.885 62,28.543 32,17 2,28.543 2,68.885 7,68.885    7,37.885 57,37.885  "/><path fill-rule="evenodd" clip-rule="evenodd" d="M85.986,69.992c-2.198,0-3.986,1.789-3.986,3.986   c0,2.199,1.788,3.986,3.986,3.986s3.987-1.787,3.987-3.986C89.974,71.781,88.185,69.992,85.986,69.992z M85.986,76.074   c-1.153,0-2.095-0.941-2.095-2.096c0-1.152,0.941-2.094,2.095-2.094s2.095,0.941,2.095,2.094   C88.081,75.133,87.14,76.074,85.986,76.074z"/><path fill-rule="evenodd" clip-rule="evenodd" d="M71,43.885H40.034v26h3.525c1.097-1.225,2.685-2,4.454-2s3.357,0.775,4.454,2H71   V43.885z"/><path fill-rule="evenodd" clip-rule="evenodd" d="M48.023,69.885L48.023,69.885c-0.003,0-0.007,0-0.01,0s-0.007,0-0.01,0l0,0   c-2.193,0.006-3.977,1.791-3.977,3.986c0,2.197,1.788,3.986,3.986,3.986S52,76.068,52,73.871   C52,71.676,50.217,69.891,48.023,69.885z M48.014,75.857c-1.095,0-1.986-0.893-1.986-1.986s0.892-1.986,1.986-1.986   c1.094,0,1.986,0.893,1.986,1.986S49.107,75.857,48.014,75.857z"/><polygon fill-rule="evenodd" clip-rule="evenodd" points="19,58.885 17,56.885 15,58.885 15,54.885 12,54.885 12,64.885 22,64.885    22,54.885 19,54.885  "/><polygon fill-rule="evenodd" clip-rule="evenodd" points="31,58.885 29,56.885 27,58.885 27,54.885 24,54.885 24,64.885 34,64.885    34,54.885 31,54.885  "/><polygon fill-rule="evenodd" clip-rule="evenodd" points="28,42.885 25,42.885 25,46.885 23,44.885 21,46.885 21,42.885 18,42.885    18,52.885 23,52.885 28,52.885  "/><path fill-rule="evenodd" clip-rule="evenodd" d="M97,67.604c0-2.346-1.12-4.449-2.868-5.719H77c-0.553,0-1-0.447-1-1v-7   c0-0.553,0.447-1,1-1s1,0.447,1,1v6h11.007l-7.997-9.99H73c-0.02,7.601,0.005,12.386,0.005,19.99h8.627   c1.092-1.162,2.638-1.893,4.354-1.893s3.263,0.73,4.355,1.893H97V67.604z"/><path fill-rule="evenodd" clip-rule="evenodd" d="M42.373,71.885H38c-1.1,0-2,0.898-2,2c0,1.1,0.9,2,2,2h4.384   c-0.227-0.631-0.356-1.307-0.356-2.014C42.027,73.174,42.153,72.506,42.373,71.885z"/><path fill-rule="evenodd" clip-rule="evenodd" d="M53.654,71.885C53.874,72.506,54,73.174,54,73.871   c0,0.707-0.13,1.383-0.356,2.014h26.673C80.114,75.285,80,74.646,80,73.979c0-0.738,0.141-1.441,0.386-2.094H53.654z"/></g><text x="0" y="115" fill="#000000" font-size="5px" font-weight="bold" font-family="'Helvetica Neue', Helvetica, Arial-Unicode, Arial, Sans-serif">Created by Nikita Kozin</text><text x="0" y="120" fill="#000000" font-size="5px" font-weight="bold" font-family="'Helvetica Neue', Helvetica, Arial-Unicode, Arial, Sans-serif">from the Noun Project</text></svg>