<svg xmlns="http://www.w3.org/2000/svg" xmlns:xlink="http://www.w3.org/1999/xlink" version="1.1" x="0px" y="0px" viewBox="0 0 91 113.75" enable-background="new 0 0 91 91" xml:space="preserve"><g><path d="M88.394,75.714h-7.891H49.455h-7.888H10.516H2.629c-1.141,0-2.067,0.927-2.067,2.067v7.891c0,1.14,0.926,2.066,2.067,2.066   h7.886c1.142,0,2.067-0.927,2.067-2.066v-5.824H39.5v5.824c0,1.14,0.925,2.066,2.067,2.066h7.888c1.141,0,2.067-0.927,2.067-2.066   v-5.824h26.914v5.824c0,1.14,0.927,2.066,2.066,2.066h7.891c1.141,0,2.066-0.927,2.066-2.066v-7.891   C90.46,76.641,89.534,75.714,88.394,75.714z M8.449,83.604H4.696v-3.757h3.752V83.604z M47.388,83.604h-3.754v-3.757h3.754V83.604z    M86.326,83.604H82.57v-3.757h3.756V83.604z"/><path d="M3.015,73.179h33.974c3.809,0,6.907-2.995,6.907-6.677V41.886c0-1.372-1.15-2.488-2.565-2.488H27.147   c-0.232,0-0.421,0.189-0.421,0.421v13.759l-4.906-2.907c-0.141-0.082-0.316-0.076-0.452,0.015l-4.164,2.836V39.819   c0-0.232-0.189-0.421-0.421-0.421H3.015c-1.414,0-2.564,1.116-2.564,2.488V70.69C0.451,72.063,1.601,73.179,3.015,73.179z    M5.995,65.567c0-0.908,0.772-1.646,1.722-1.646h11.723c0.951,0,1.724,0.738,1.724,1.646c0,0.906-0.773,1.646-1.724,1.646H7.716   C6.767,67.213,5.995,66.474,5.995,65.567z"/><path d="M88.006,39.398H73.822c-0.232,0-0.422,0.189-0.422,0.421v13.759l-4.905-2.907c-0.141-0.082-0.316-0.076-0.452,0.015   l-4.164,2.836V39.819c0-0.232-0.189-0.421-0.422-0.421H49.689c-1.413,0-2.563,1.116-2.563,2.488V70.69   c0,1.372,1.15,2.488,2.563,2.488h33.975c3.809,0,6.907-2.995,6.907-6.677V41.886C90.571,40.515,89.421,39.398,88.006,39.398z    M67.838,65.567c0,0.906-0.773,1.646-1.725,1.646H54.391c-0.949,0-1.722-0.739-1.722-1.646c0-0.908,0.772-1.646,1.722-1.646h11.723   C67.064,63.921,67.838,64.659,67.838,65.567z"/><path d="M23.788,5.269v28.804c0,1.372,1.15,2.488,2.565,2.488h33.974c3.809,0,6.907-2.995,6.907-6.677V5.269   c0-1.372-1.151-2.488-2.565-2.488H50.484c-0.231,0-0.419,0.189-0.419,0.421V16.96l-4.908-2.909   c-0.142-0.083-0.317-0.078-0.452,0.014l-4.163,2.837V3.202c0-0.232-0.189-0.421-0.421-0.421H26.354   C24.938,2.781,23.788,3.897,23.788,5.269z M29.333,28.949c0-0.907,0.772-1.646,1.722-1.646h11.723c0.951,0,1.724,0.739,1.724,1.646   s-0.773,1.646-1.724,1.646H31.055C30.105,30.595,29.333,29.856,29.333,28.949z"/></g><text x="0" y="106" fill="#000000" font-size="5px" font-weight="bold" font-family="'Helvetica Neue', Helvetica, Arial-Unicode, Arial, Sans-serif">Created by BomSymbols</text><text x="0" y="111" fill="#000000" font-size="5px" font-weight="bold" font-family="'Helvetica Neue', Helvetica, Arial-Unicode, Arial, Sans-serif">from the Noun Project</text></svg>