<svg xmlns="http://www.w3.org/2000/svg" xmlns:xlink="http://www.w3.org/1999/xlink" version="1.1" x="0px" y="0px" viewBox="0 0 200 250" enable-background="new 0 0 200 200" xml:space="preserve"><g><polygon fill="#000000" points="100,195.719 35.973,153.034 35.973,124.786 42.734,124.786 42.734,149.416 100,187.593    157.269,149.416 157.269,124.786 164.029,124.786 164.029,153.034  "/><rect x="96.62" y="120.88" fill="#000000" width="6.761" height="70.776"/><path fill="#000000" d="M133.253,147.117l-39.348-26.238l66.744-44.485l39.348,26.219L133.253,147.117z M106.095,120.88   l27.158,18.111l54.555-36.378l-27.158-18.095L106.095,120.88z"/><path fill="#000000" d="M66.744,147.117L0.003,102.613l39.348-26.219l66.744,44.485L66.744,147.117z M12.192,102.613l54.552,36.378   l27.161-18.111L39.351,84.518L12.192,102.613z"/><polygon fill="#000000" points="162.524,83.269 158.774,77.644 187.811,58.282 167.762,44.925 171.513,39.298 200,58.279  "/><polygon fill="#000000" points="37.476,83.269 0,58.279 28.488,39.298 32.238,44.925 12.189,58.282 41.226,77.644  "/><g><defs><polygon id="b" points="30.366,4.281 30.366,74.457 100,120.88 169.638,74.457 169.638,4.281    "/></defs><clipPath id="a"><use xlink:href="#b" overflow="visible"/></clipPath><g clip-path="url(#a)"><path fill="#000000" d="M100,129.739c-34.225,0-62.069-27.845-62.069-62.069c0-34.227,27.845-62.071,62.069-62.071     c34.226,0,62.069,27.844,62.069,62.071C162.069,101.895,134.226,129.739,100,129.739z M100,12.36     c-30.498,0-55.309,24.812-55.309,55.31c0,30.496,24.811,55.309,55.309,55.309c30.498,0,55.309-24.813,55.309-55.309     C155.309,37.171,130.498,12.36,100,12.36z"/><path fill="#000000" d="M100,129.739c-18.351,0-32.725-27.264-32.725-62.069c0-34.806,14.375-62.071,32.725-62.071v6.761     c-14.074,0-25.964,25.329-25.964,55.31c0,29.979,11.89,55.309,25.964,55.309V129.739z"/><path fill="#000000" d="M100,129.739v-6.761c14.073,0,25.964-25.329,25.964-55.309c0-29.981-11.891-55.31-25.964-55.31V5.599     c18.351,0,32.725,27.265,32.725,62.071C132.725,102.476,118.351,129.739,100,129.739z"/><rect x="96.62" y="8.979" fill="#000000" width="6.761" height="117.379"/><rect x="41.311" y="64.289" fill="#000000" width="117.377" height="6.761"/><path fill="#000000" d="M100,41.706c-15.996,0-31.762-2.515-46.862-7.475l2.11-6.424c14.417,4.736,29.474,7.138,44.752,7.138     c15.296,0,30.355-2.401,44.759-7.137l2.113,6.422C131.784,39.19,116.015,41.706,100,41.706z"/><path fill="#000000" d="M55.248,107.533l-2.11-6.424c15.11-4.961,30.876-7.476,46.862-7.476c16.003,0,31.772,2.515,46.87,7.476     l-2.109,6.424c-14.416-4.738-29.476-7.139-44.761-7.139C84.732,100.395,69.675,102.795,55.248,107.533z"/></g></g></g><text x="0" y="215" fill="#000000" font-size="5px" font-weight="bold" font-family="'Helvetica Neue', Helvetica, Arial-Unicode, Arial, Sans-serif">Created by Maxim Basinski</text><text x="0" y="220" fill="#000000" font-size="5px" font-weight="bold" font-family="'Helvetica Neue', Helvetica, Arial-Unicode, Arial, Sans-serif">from the Noun Project</text></svg>